<svg xmlns="http://www.w3.org/2000/svg">
	<symbol id="trash" viewBox="0 0 20 20" >
		<path
			d="M6.45834 4.375C6.45834 3.5462 6.78758 2.75134 7.37363 2.16529C7.95968 1.57924 8.75454 1.25 9.58334 1.25C10.4121 1.25 11.207 1.57924 11.793 2.16529C12.3791 2.75134 12.7084 3.5462 12.7084 4.375M6.45834 4.375H12.7084M6.45834 4.375H3.33334M12.7084 4.375H15.8334M3.33334 4.375H1.25M3.33334 4.375V15.8334C3.33334 16.3859 3.55282 16.9157 3.94352 17.3065C4.33422 17.6971 4.86414 17.9166 5.41666 17.9166H13.75C14.3025 17.9166 14.8325 17.6971 15.2231 17.3065C15.6139 16.9157 15.8334 16.3859 15.8334 15.8334V4.375M15.8334 4.375H17.9166"
			 stroke-width="1.66667" stroke-linecap="round" stroke-linejoin="round" />
	</symbol>
</svg>